G04*
G04 #@! TF.GenerationSoftware,Altium Limited,Altium Designer,23.8.1 (32)*
G04*
G04 Layer_Color=8388736*
%FSLAX44Y44*%
%MOMM*%
G71*
G04*
G04 #@! TF.SameCoordinates,28D0BBF9-8047-43AB-9FF1-3D26A4D0E5B6*
G04*
G04*
G04 #@! TF.FilePolarity,Negative*
G04*
G01*
G75*
%ADD20R,1.4524X1.6524*%
G04:AMPARAMS|DCode=21|XSize=2.1732mm|YSize=0.8032mm|CornerRadius=0.1766mm|HoleSize=0mm|Usage=FLASHONLY|Rotation=180.000|XOffset=0mm|YOffset=0mm|HoleType=Round|Shape=RoundedRectangle|*
%AMROUNDEDRECTD21*
21,1,2.1732,0.4500,0,0,180.0*
21,1,1.8200,0.8032,0,0,180.0*
1,1,0.3532,-0.9100,0.2250*
1,1,0.3532,0.9100,0.2250*
1,1,0.3532,0.9100,-0.2250*
1,1,0.3532,-0.9100,-0.2250*
%
%ADD21ROUNDEDRECTD21*%
%ADD22R,0.7532X1.4032*%
%ADD23R,1.7272X1.7272*%
%ADD24R,1.3524X1.3524*%
%ADD25R,1.4224X1.4224*%
%ADD26O,3.2512X1.7272*%
%ADD27R,1.8032X1.8032*%
%ADD28C,1.8032*%
%ADD29R,1.8032X1.8032*%
%ADD30C,1.4732*%
D20*
X597511Y1135381D02*
D03*
X578511D02*
D03*
X597511Y1163321D02*
D03*
X578511D02*
D03*
X577241Y1217931D02*
D03*
X596241D02*
D03*
X576580Y1244600D02*
D03*
X595580D02*
D03*
X577850Y1192530D02*
D03*
X596850D02*
D03*
D21*
X448960Y1189990D02*
D03*
Y1202690D02*
D03*
Y1215390D02*
D03*
Y1228090D02*
D03*
X498460D02*
D03*
Y1215390D02*
D03*
Y1202690D02*
D03*
Y1189990D02*
D03*
D22*
X483210Y1124250D02*
D03*
X473710D02*
D03*
X464210D02*
D03*
Y1098250D02*
D03*
X483210D02*
D03*
X473710D02*
D03*
D23*
X485778Y1159460D02*
D03*
X451488D02*
D03*
D24*
X401320Y1242061D02*
D03*
X383540D02*
D03*
X402590Y1203961D02*
D03*
X384810D02*
D03*
D25*
X467360Y1064260D02*
D03*
X487360D02*
D03*
D26*
X392430Y1126490D02*
D03*
Y1101090D02*
D03*
Y1075690D02*
D03*
X307340Y1078230D02*
D03*
Y1103630D02*
D03*
Y1129030D02*
D03*
D27*
X579120Y1054100D02*
D03*
D28*
X604520D02*
D03*
X306070Y1220470D02*
D03*
D29*
Y1245870D02*
D03*
D30*
X531368Y1242061D02*
D03*
X446023D02*
D03*
X464820Y1261618D02*
D03*
X595580D02*
D03*
X427228Y1203198D02*
D03*
X533400Y1128268D02*
D03*
X545084Y1217930D02*
D03*
X402590D02*
D03*
M02*
