G04*
G04 #@! TF.GenerationSoftware,Altium Limited,Altium Designer,23.8.1 (32)*
G04*
G04 Layer_Physical_Order=2*
G04 Layer_Color=16711680*
%FSLAX44Y44*%
%MOMM*%
G71*
G04*
G04 #@! TF.SameCoordinates,28D0BBF9-8047-43AB-9FF1-3D26A4D0E5B6*
G04*
G04*
G04 #@! TF.FilePolarity,Positive*
G04*
G01*
G75*
%ADD37C,0.4000*%
%ADD38O,3.0480X1.5240*%
%ADD39R,1.6000X1.6000*%
%ADD40C,1.6000*%
%ADD41R,1.6000X1.6000*%
%ADD42C,1.2700*%
D37*
X446023Y1242061D02*
X531368D01*
X352552Y1101090D02*
X392430D01*
X350012Y1103630D02*
X352552Y1101090D01*
X307340Y1103630D02*
X350012D01*
X464820Y1261618D02*
X522319D01*
X523239Y1262538D01*
X594660D01*
X595580Y1261618D01*
X427228Y1203198D02*
X569722D01*
X604520Y1168400D01*
Y1054100D02*
Y1168400D01*
X519176Y1142492D02*
X533400Y1128268D01*
X376682Y1142492D02*
X519176D01*
X363220Y1129030D02*
X376682Y1142492D01*
X307340Y1129030D02*
X363220D01*
X402590Y1217930D02*
X545084D01*
X331470Y1054100D02*
X579120D01*
X307340Y1078230D02*
X331470Y1054100D01*
D38*
X392430Y1126490D02*
D03*
Y1101090D02*
D03*
Y1075690D02*
D03*
X307340Y1078230D02*
D03*
Y1103630D02*
D03*
Y1129030D02*
D03*
D39*
X579120Y1054100D02*
D03*
D40*
X604520D02*
D03*
X306070Y1220470D02*
D03*
D41*
Y1245870D02*
D03*
D42*
X531368Y1242061D02*
D03*
X446023D02*
D03*
X464820Y1261618D02*
D03*
X595580D02*
D03*
X427228Y1203198D02*
D03*
X533400Y1128268D02*
D03*
X545084Y1217930D02*
D03*
X402590D02*
D03*
M02*
